<svg width="1763" height="812" viewBox="0 0 1763 812" fill="none" xmlns="http://www.w3.org/2000/svg">
<path d="M282 589.5C282 649.975 218.872 699 141 699C63.1279 699 0 649.975 0 589.5C0 529.025 63.1279 480 141 480C218.872 480 282 529.025 282 589.5Z" fill="#48110C"/>
<path d="M441 511.5C441 571.975 377.872 621 300 621C222.128 621 159 571.975 159 511.5C159 451.025 222.128 402 300 402C377.872 402 441 451.025 441 511.5Z" fill="#48110C"/>
<path d="M614 435.5C614 495.975 550.872 545 473 545C395.128 545 332 495.975 332 435.5C332 375.025 395.128 326 473 326C550.872 326 614 375.025 614 435.5Z" fill="#48110C"/>
<path d="M110.632 595.905C110.891 595.766 111.165 595.741 111.454 595.829C111.742 595.917 111.956 596.09 112.094 596.349L114.958 601.712C115.096 601.971 115.121 602.244 115.034 602.533C114.946 602.822 114.773 603.035 114.514 603.173L100.647 610.578L101.853 612.836L113.426 606.656C113.685 606.518 113.959 606.493 114.247 606.58C114.536 606.668 114.749 606.841 114.888 607.1L117.733 612.428C117.871 612.687 117.896 612.96 117.809 613.249C117.721 613.538 117.548 613.751 117.289 613.889L105.716 620.07L109.446 627.056C109.585 627.315 109.61 627.588 109.522 627.877C109.434 628.166 109.261 628.379 109.002 628.517L101.381 632.587C101.122 632.725 100.849 632.751 100.56 632.663C100.271 632.575 100.058 632.402 99.9197 632.143L87.7477 609.35C87.6095 609.091 87.5843 608.817 87.6719 608.528C87.7596 608.24 87.9329 608.026 88.1916 607.888L110.632 595.905ZM140.386 610.216C140.507 611.179 140.192 611.862 139.439 612.264L132.77 615.825C132.559 615.938 132.333 615.968 132.093 615.915C131.864 615.826 131.693 615.675 131.579 615.463L131.502 615.233L127.154 588.579C127.084 588.223 127.116 587.858 127.249 587.484C127.383 587.111 127.673 586.805 128.12 586.566L137.929 581.328C138.376 581.09 138.791 581.019 139.176 581.116C139.56 581.213 139.881 581.389 140.138 581.645L159.87 600.084L160.019 600.277C160.132 600.488 160.15 600.72 160.073 600.973C160.007 601.19 159.869 601.354 159.657 601.467L152.988 605.029C152.235 605.431 151.493 605.313 150.76 604.677L148.559 602.678L139.949 607.275L140.386 610.216ZM136.661 590.757L138.075 599.434L143.085 596.758L136.661 590.757ZM173.857 573.66C176.595 572.561 178.91 571.914 180.802 571.72C182.717 571.514 184.303 571.739 185.562 572.398C186.82 573.056 187.864 574.161 188.693 575.714C189.597 577.407 189.836 579.184 189.409 581.045C188.992 582.87 188.002 584.638 186.437 586.35C184.86 588.039 182.837 589.543 180.367 590.862C177.615 592.331 175.104 593.234 172.834 593.569C170.565 593.904 168.658 593.759 167.114 593.132C165.558 592.482 164.415 591.475 163.686 590.11C163.561 589.875 163.531 589.649 163.597 589.433C163.686 589.204 163.848 589.026 164.083 588.901L171.317 585.038C171.811 584.774 172.292 584.714 172.761 584.856C173.362 585.019 173.947 585.039 174.517 584.916C175.073 584.77 175.799 584.458 176.693 583.981C178.927 582.788 179.863 581.85 179.498 581.168C179.348 580.886 179.069 580.732 178.663 580.707C178.267 580.646 177.656 580.746 176.828 581.007C176.01 581.232 174.84 581.645 173.318 582.246C169.894 583.591 166.997 584.11 164.627 583.804C162.244 583.474 160.449 582.18 159.243 579.922C158.389 578.322 158.118 576.654 158.429 574.915C158.74 573.177 159.596 571.496 160.996 569.872C162.419 568.235 164.307 566.788 166.659 565.532C169.106 564.226 171.454 563.471 173.703 563.267C175.94 563.04 177.842 563.234 179.409 563.848C180.977 564.462 182.049 565.31 182.627 566.392C182.753 566.627 182.771 566.859 182.681 567.089C182.616 567.305 182.453 567.482 182.195 567.621L174.609 571.672C174.209 571.885 173.769 571.939 173.289 571.832C172.904 571.735 172.498 571.71 172.07 571.758C171.642 571.805 171.063 572.023 170.334 572.413C168.758 573.254 168.145 574.004 168.497 574.663C168.686 575.016 169.142 575.135 169.867 575.02C170.579 574.882 171.909 574.428 173.857 573.66ZM213.092 541.191C213.35 541.052 213.624 541.027 213.913 541.115C214.202 541.202 214.415 541.376 214.553 541.634L226.725 564.428C226.863 564.687 226.889 564.961 226.801 565.249C226.713 565.538 226.54 565.751 226.281 565.889L219.013 569.771C218.754 569.909 218.48 569.934 218.191 569.847C217.903 569.759 217.689 569.586 217.551 569.327L213.538 561.811L206.481 565.58L210.494 573.095C210.633 573.354 210.658 573.628 210.57 573.917C210.482 574.205 210.309 574.419 210.05 574.557L202.782 578.438C202.523 578.576 202.256 578.613 201.98 578.549C201.691 578.462 201.471 578.277 201.32 577.994L189.148 555.201C189.01 554.942 188.985 554.668 189.073 554.38C189.16 554.091 189.334 553.878 189.592 553.739L196.861 549.858C197.12 549.72 197.393 549.694 197.682 549.782C197.971 549.87 198.184 550.043 198.322 550.302L202.185 557.535L209.242 553.767L205.379 546.533C205.241 546.275 205.216 546.001 205.303 545.712C205.391 545.424 205.564 545.21 205.823 545.072L213.092 541.191ZM249.679 544.099L256.066 540.688C256.325 540.55 256.598 540.525 256.887 540.613C257.176 540.7 257.389 540.873 257.527 541.132L260.372 546.46C260.511 546.719 260.536 546.993 260.448 547.281C260.36 547.57 260.187 547.783 259.929 547.921L237.558 559.867C237.3 560.006 237.026 560.031 236.737 559.943C236.449 559.855 236.235 559.682 236.097 559.423L233.252 554.096C233.114 553.837 233.088 553.563 233.176 553.274C233.264 552.986 233.437 552.772 233.696 552.634L240.153 549.186L234.689 538.954L228.231 542.402C227.973 542.54 227.699 542.565 227.41 542.477C227.122 542.39 226.908 542.216 226.77 541.958L223.925 536.63C223.787 536.371 223.762 536.097 223.849 535.809C223.937 535.52 224.11 535.307 224.369 535.168L246.739 523.223C246.998 523.084 247.272 523.059 247.56 523.147C247.849 523.235 248.062 523.408 248.2 523.666L251.046 528.994C251.184 529.253 251.209 529.527 251.121 529.816C251.034 530.104 250.86 530.318 250.602 530.456L244.215 533.866L249.679 544.099ZM290.636 518.419C292.558 522.018 292.777 525.316 291.295 528.315C289.836 531.301 287.119 533.855 283.144 535.978C279.168 538.101 275.523 538.944 272.206 538.508C268.913 538.06 266.294 536.013 264.347 532.367L262.123 528.203C260.842 525.804 260.345 523.515 260.633 521.336C260.931 519.12 261.867 517.109 263.441 515.301C265.015 513.493 267.061 511.917 269.577 510.573C272.094 509.229 274.53 508.412 276.884 508.122C279.262 507.82 281.448 508.149 283.443 509.109C285.437 510.07 287.068 511.738 288.337 514.114L290.636 518.419ZM274.269 528.02C274.784 528.985 275.497 529.556 276.409 529.734C277.344 529.9 278.364 529.688 279.47 529.097C280.575 528.507 281.307 527.784 281.666 526.927C282.036 526.034 281.963 525.106 281.448 524.141L278.471 518.566C277.956 517.602 277.231 517.037 276.296 516.871C275.372 516.669 274.357 516.863 273.252 517.454C272.146 518.044 271.402 518.774 271.02 519.643C270.661 520.5 270.739 521.41 271.254 522.375L274.269 528.02ZM315.022 486.759C315.281 486.621 315.554 486.596 315.843 486.683C316.132 486.771 316.345 486.944 316.483 487.203L328.655 509.997C328.793 510.255 328.819 510.529 328.731 510.818C328.643 511.106 328.47 511.32 328.211 511.458L322.53 514.492C321.966 514.793 321.364 514.797 320.723 514.504L307.793 508.803L312.918 518.4C313.057 518.659 313.082 518.933 312.994 519.221C312.906 519.51 312.733 519.723 312.474 519.862L305.912 523.366C305.653 523.504 305.379 523.53 305.09 523.442C304.802 523.354 304.588 523.181 304.45 522.922L292.278 500.129C292.14 499.87 292.115 499.596 292.202 499.307C292.29 499.019 292.463 498.805 292.722 498.667L298.438 495.615C299.003 495.313 299.587 495.304 300.191 495.586L313.555 502.099L308.015 491.725C307.877 491.466 307.852 491.193 307.939 490.904C308.027 490.615 308.2 490.402 308.459 490.264L315.022 486.759ZM399.015 472.243C399.112 472.312 399.192 472.405 399.255 472.522C399.368 472.734 399.386 472.966 399.309 473.219C399.244 473.435 399.105 473.6 398.893 473.713L390.884 477.99C390.554 478.166 390.205 478.247 389.834 478.233C389.488 478.207 389.187 478.096 388.931 477.9L382.095 472.571L379.131 474.154L382.824 481.07C382.962 481.329 382.988 481.602 382.9 481.891C382.812 482.18 382.639 482.393 382.38 482.531L374.759 486.601C374.5 486.739 374.226 486.765 373.938 486.677C373.649 486.589 373.436 486.416 373.297 486.157L361.125 463.364C360.987 463.105 360.962 462.831 361.05 462.542C361.137 462.254 361.311 462.04 361.569 461.902L375.295 454.573C377.412 453.442 379.441 452.797 381.381 452.638C383.345 452.466 385.096 452.8 386.633 453.642C388.171 454.484 389.405 455.775 390.334 457.515C392.042 460.714 392.045 463.691 390.341 466.445L399.015 472.243ZM380.056 465.271C380.573 464.995 380.885 464.617 380.992 464.137C381.086 463.633 380.994 463.123 380.718 462.605C380.442 462.088 380.062 461.716 379.579 461.49C379.106 461.229 378.6 461.242 378.059 461.531L373.648 463.886L375.645 467.627L380.056 465.271ZM454.203 444.631C450.251 446.741 446.653 447.559 443.407 447.086C440.185 446.6 437.6 444.533 435.653 440.887L428.455 427.409C428.317 427.15 428.292 426.876 428.38 426.588C428.467 426.299 428.641 426.086 428.899 425.947L436.274 422.009C436.533 421.871 436.806 421.846 437.095 421.934C437.384 422.021 437.597 422.195 437.735 422.453L445.234 436.496C445.749 437.461 446.463 438.032 447.374 438.211C448.309 438.376 449.329 438.164 450.435 437.574C451.54 436.983 452.273 436.26 452.631 435.403C453.014 434.534 452.947 433.617 452.432 432.653L444.933 418.61C444.795 418.351 444.77 418.077 444.857 417.788C444.945 417.5 445.118 417.286 445.377 417.148L452.752 413.21C453.01 413.072 453.284 413.047 453.573 413.134C453.861 413.222 454.075 413.395 454.213 413.654L461.411 427.133C463.358 430.779 463.625 434.082 462.213 437.043C460.825 439.991 458.155 442.52 454.203 444.631ZM481.764 409.235C484.502 408.136 486.817 407.489 488.709 407.295C490.624 407.089 492.211 407.314 493.469 407.973C494.727 408.631 495.771 409.736 496.6 411.289C497.505 412.982 497.743 414.759 497.316 416.62C496.9 418.445 495.909 420.213 494.345 421.925C492.768 423.614 490.744 425.118 488.274 426.437C485.522 427.906 483.011 428.809 480.741 429.144C478.472 429.479 476.565 429.334 475.021 428.707C473.465 428.057 472.322 427.05 471.594 425.685C471.468 425.45 471.438 425.224 471.504 425.008C471.593 424.779 471.755 424.601 471.991 424.476L479.224 420.613C479.718 420.349 480.199 420.289 480.669 420.431C481.269 420.594 481.855 420.614 482.424 420.491C482.981 420.345 483.706 420.033 484.6 419.556C486.835 418.363 487.77 417.425 487.405 416.743C487.255 416.461 486.976 416.307 486.57 416.282C486.175 416.221 485.563 416.321 484.735 416.582C483.918 416.807 482.748 417.22 481.225 417.821C477.801 419.166 474.904 419.685 472.534 419.379C470.151 419.049 468.357 417.755 467.151 415.497C466.297 413.897 466.025 412.229 466.336 410.49C466.648 408.752 467.503 407.071 468.903 405.447C470.327 403.81 472.214 402.363 474.567 401.107C477.013 399.801 479.361 399.046 481.61 398.842C483.847 398.615 485.749 398.809 487.316 399.423C488.884 400.037 489.956 400.885 490.534 401.967C490.66 402.202 490.678 402.434 490.589 402.664C490.523 402.88 490.361 403.057 490.102 403.196L482.516 407.247C482.116 407.46 481.676 407.514 481.196 407.407C480.811 407.31 480.405 407.285 479.977 407.333C479.549 407.38 478.97 407.598 478.241 407.988C476.665 408.829 476.053 409.579 476.404 410.238C476.593 410.591 477.049 410.71 477.774 410.595C478.486 410.457 479.816 410.003 481.764 409.235Z" fill="#FF7BAC"/>
<path d="M896 263.5C896 323.975 832.872 373 755 373C677.128 373 614 323.975 614 263.5C614 203.025 677.128 154 755 154C832.872 154 896 203.025 896 263.5Z" fill="#48110C"/>
<path d="M1055 185.5C1055 245.975 991.872 295 914 295C836.128 295 773 245.975 773 185.5C773 125.025 836.128 76 914 76C991.872 76 1055 125.025 1055 185.5Z" fill="#48110C"/>
<path d="M1228 109.5C1228 169.975 1164.87 219 1087 219C1009.13 219 946 169.975 946 109.5C946 49.0248 1009.13 0 1087 0C1164.87 0 1228 49.0248 1228 109.5Z" fill="#48110C"/>
<path d="M724.632 269.905C724.891 269.766 725.165 269.741 725.454 269.829C725.742 269.917 725.956 270.09 726.094 270.349L728.958 275.712C729.096 275.971 729.121 276.244 729.034 276.533C728.946 276.822 728.773 277.035 728.514 277.173L714.647 284.578L715.853 286.836L727.426 280.656C727.685 280.518 727.959 280.493 728.247 280.58C728.536 280.668 728.749 280.841 728.888 281.1L731.733 286.428C731.871 286.687 731.896 286.96 731.809 287.249C731.721 287.538 731.548 287.751 731.289 287.889L719.716 294.07L723.446 301.056C723.585 301.315 723.61 301.588 723.522 301.877C723.434 302.166 723.261 302.379 723.002 302.517L715.381 306.587C715.122 306.725 714.849 306.751 714.56 306.663C714.271 306.575 714.058 306.402 713.92 306.143L701.748 283.35C701.609 283.091 701.584 282.817 701.672 282.528C701.76 282.24 701.933 282.026 702.192 281.888L724.632 269.905ZM754.386 284.216C754.507 285.179 754.192 285.862 753.439 286.264L746.77 289.825C746.559 289.938 746.333 289.968 746.093 289.915C745.864 289.826 745.693 289.675 745.579 289.463L745.502 289.233L741.154 262.579C741.084 262.223 741.116 261.858 741.249 261.484C741.383 261.111 741.673 260.805 742.12 260.566L751.929 255.328C752.376 255.09 752.791 255.019 753.176 255.116C753.56 255.213 753.881 255.389 754.138 255.645L773.87 274.084L774.019 274.277C774.132 274.488 774.15 274.72 774.073 274.973C774.007 275.19 773.869 275.354 773.657 275.467L766.988 279.029C766.235 279.431 765.493 279.313 764.76 278.677L762.559 276.678L753.949 281.275L754.386 284.216ZM750.661 264.757L752.075 273.434L757.085 270.758L750.661 264.757ZM787.857 247.66C790.595 246.561 792.91 245.914 794.802 245.72C796.717 245.514 798.303 245.739 799.562 246.398C800.82 247.056 801.864 248.161 802.693 249.714C803.597 251.407 803.836 253.184 803.409 255.045C802.992 256.87 802.002 258.638 800.437 260.35C798.86 262.039 796.837 263.543 794.367 264.862C791.615 266.331 789.104 267.234 786.834 267.569C784.565 267.904 782.658 267.759 781.114 267.132C779.558 266.482 778.415 265.475 777.686 264.11C777.561 263.875 777.531 263.649 777.597 263.433C777.686 263.204 777.848 263.026 778.083 262.901L785.317 259.038C785.811 258.774 786.292 258.714 786.761 258.856C787.362 259.019 787.947 259.039 788.517 258.916C789.073 258.77 789.799 258.458 790.693 257.981C792.927 256.788 793.863 255.85 793.498 255.168C793.348 254.886 793.069 254.732 792.663 254.707C792.267 254.646 791.656 254.746 790.828 255.007C790.01 255.232 788.84 255.645 787.318 256.246C783.894 257.591 780.997 258.11 778.627 257.804C776.244 257.474 774.449 256.18 773.243 253.922C772.389 252.322 772.118 250.654 772.429 248.915C772.74 247.177 773.596 245.496 774.996 243.872C776.419 242.235 778.307 240.788 780.659 239.532C783.106 238.226 785.454 237.471 787.703 237.267C789.94 237.04 791.842 237.234 793.409 237.848C794.977 238.462 796.049 239.31 796.627 240.392C796.753 240.627 796.771 240.859 796.681 241.089C796.616 241.305 796.453 241.482 796.195 241.621L788.609 245.672C788.209 245.885 787.769 245.939 787.289 245.832C786.904 245.735 786.498 245.71 786.07 245.758C785.642 245.805 785.063 246.023 784.334 246.413C782.758 247.254 782.145 248.004 782.497 248.663C782.686 249.016 783.142 249.135 783.867 249.02C784.579 248.882 785.909 248.428 787.857 247.66ZM827.092 215.191C827.35 215.052 827.624 215.027 827.913 215.115C828.202 215.202 828.415 215.376 828.553 215.634L840.725 238.428C840.863 238.687 840.889 238.961 840.801 239.249C840.713 239.538 840.54 239.751 840.281 239.889L833.013 243.771C832.754 243.909 832.48 243.934 832.191 243.847C831.903 243.759 831.689 243.586 831.551 243.327L827.538 235.811L820.481 239.58L824.494 247.095C824.633 247.354 824.658 247.628 824.57 247.917C824.482 248.205 824.309 248.419 824.05 248.557L816.782 252.438C816.523 252.576 816.256 252.613 815.98 252.549C815.691 252.462 815.471 252.277 815.32 251.994L803.148 229.201C803.01 228.942 802.985 228.668 803.073 228.38C803.16 228.091 803.334 227.878 803.592 227.739L810.861 223.858C811.12 223.72 811.393 223.694 811.682 223.782C811.971 223.87 812.184 224.043 812.322 224.302L816.185 231.535L823.242 227.767L819.379 220.533C819.241 220.275 819.216 220.001 819.303 219.712C819.391 219.424 819.564 219.21 819.823 219.072L827.092 215.191ZM863.679 218.099L870.066 214.688C870.325 214.55 870.598 214.525 870.887 214.613C871.176 214.7 871.389 214.873 871.527 215.132L874.372 220.46C874.511 220.719 874.536 220.993 874.448 221.281C874.36 221.57 874.187 221.783 873.929 221.921L851.558 233.867C851.3 234.006 851.026 234.031 850.737 233.943C850.449 233.855 850.235 233.682 850.097 233.423L847.252 228.096C847.114 227.837 847.088 227.563 847.176 227.274C847.264 226.986 847.437 226.772 847.696 226.634L854.153 223.186L848.689 212.954L842.231 216.402C841.973 216.54 841.699 216.565 841.41 216.477C841.122 216.39 840.908 216.216 840.77 215.958L837.925 210.63C837.787 210.371 837.762 210.097 837.849 209.809C837.937 209.52 838.11 209.307 838.369 209.168L860.739 197.223C860.998 197.084 861.272 197.059 861.56 197.147C861.849 197.235 862.062 197.408 862.2 197.666L865.046 202.994C865.184 203.253 865.209 203.527 865.121 203.816C865.034 204.104 864.86 204.318 864.602 204.456L858.215 207.866L863.679 218.099ZM904.636 192.419C906.558 196.018 906.777 199.316 905.295 202.315C903.836 205.301 901.119 207.855 897.144 209.978C893.168 212.101 889.523 212.944 886.206 212.508C882.913 212.06 880.294 210.013 878.347 206.367L876.123 202.203C874.842 199.804 874.345 197.515 874.633 195.336C874.931 193.12 875.867 191.109 877.441 189.301C879.015 187.493 881.061 185.917 883.577 184.573C886.094 183.229 888.53 182.412 890.884 182.122C893.262 181.82 895.448 182.149 897.443 183.109C899.437 184.07 901.068 185.738 902.337 188.114L904.636 192.419ZM888.269 202.02C888.784 202.985 889.497 203.556 890.409 203.734C891.344 203.9 892.364 203.688 893.47 203.097C894.575 202.507 895.307 201.784 895.666 200.927C896.036 200.034 895.963 199.106 895.448 198.141L892.471 192.566C891.956 191.602 891.231 191.037 890.296 190.871C889.372 190.669 888.357 190.863 887.252 191.454C886.146 192.044 885.402 192.774 885.02 193.643C884.661 194.5 884.739 195.41 885.254 196.375L888.269 202.02ZM929.022 160.759C929.281 160.621 929.554 160.596 929.843 160.683C930.132 160.771 930.345 160.944 930.483 161.203L942.655 183.997C942.793 184.255 942.819 184.529 942.731 184.818C942.643 185.106 942.47 185.32 942.211 185.458L936.53 188.492C935.966 188.793 935.364 188.797 934.723 188.504L921.793 182.803L926.918 192.4C927.057 192.659 927.082 192.933 926.994 193.221C926.906 193.51 926.733 193.723 926.474 193.862L919.912 197.366C919.653 197.504 919.379 197.53 919.09 197.442C918.802 197.354 918.588 197.181 918.45 196.922L906.278 174.129C906.14 173.87 906.115 173.596 906.202 173.307C906.29 173.019 906.463 172.805 906.722 172.667L912.438 169.615C913.003 169.313 913.587 169.304 914.191 169.586L927.555 176.099L922.015 165.725C921.877 165.466 921.852 165.193 921.939 164.904C922.027 164.615 922.2 164.402 922.459 164.264L929.022 160.759ZM1013.01 146.243C1013.11 146.312 1013.19 146.405 1013.25 146.522C1013.37 146.734 1013.39 146.966 1013.31 147.219C1013.24 147.435 1013.1 147.6 1012.89 147.713L1004.88 151.99C1004.55 152.166 1004.2 152.247 1003.83 152.233C1003.49 152.207 1003.19 152.096 1002.93 151.9L996.095 146.571L993.131 148.154L996.824 155.07C996.962 155.329 996.988 155.602 996.9 155.891C996.812 156.18 996.639 156.393 996.38 156.531L988.759 160.601C988.5 160.739 988.226 160.765 987.938 160.677C987.649 160.589 987.436 160.416 987.297 160.157L975.125 137.364C974.987 137.105 974.962 136.831 975.05 136.542C975.137 136.254 975.311 136.04 975.569 135.902L989.295 128.573C991.412 127.442 993.441 126.797 995.381 126.638C997.345 126.466 999.096 126.8 1000.63 127.642C1002.17 128.484 1003.4 129.775 1004.33 131.515C1006.04 134.714 1006.04 137.691 1004.34 140.445L1013.01 146.243ZM994.056 139.271C994.573 138.995 994.885 138.617 994.992 138.137C995.086 137.633 994.994 137.123 994.718 136.605C994.442 136.088 994.062 135.716 993.579 135.49C993.106 135.229 992.6 135.242 992.059 135.531L987.648 137.886L989.645 141.627L994.056 139.271ZM1068.2 118.631C1064.25 120.741 1060.65 121.559 1057.41 121.086C1054.18 120.6 1051.6 118.533 1049.65 114.887L1042.46 101.409C1042.32 101.15 1042.29 100.876 1042.38 100.588C1042.47 100.299 1042.64 100.086 1042.9 99.9474L1050.27 96.0094C1050.53 95.8713 1050.81 95.846 1051.09 95.9337C1051.38 96.0214 1051.6 96.1946 1051.74 96.4534L1059.23 110.496C1059.75 111.461 1060.46 112.032 1061.37 112.211C1062.31 112.376 1063.33 112.164 1064.43 111.574C1065.54 110.983 1066.27 110.26 1066.63 109.403C1067.01 108.534 1066.95 107.617 1066.43 106.653L1058.93 92.6096C1058.8 92.3508 1058.77 92.0771 1058.86 91.7884C1058.95 91.4998 1059.12 91.2864 1059.38 91.1482L1066.75 87.2102C1067.01 87.072 1067.28 87.0468 1067.57 87.1345C1067.86 87.2222 1068.07 87.3954 1068.21 87.6541L1075.41 101.133C1077.36 104.779 1077.63 108.082 1076.21 111.043C1074.83 113.991 1072.16 116.52 1068.2 118.631ZM1095.76 83.2352C1098.5 82.1358 1100.82 81.4891 1102.71 81.2951C1104.62 81.0886 1106.21 81.3145 1107.47 81.9726C1108.73 82.6308 1109.77 83.7361 1110.6 85.2886C1111.5 86.9823 1111.74 88.7594 1111.32 90.62C1110.9 92.4445 1109.91 94.2129 1108.34 95.9251C1106.77 97.6138 1104.74 99.1176 1102.27 100.437C1099.52 101.906 1097.01 102.809 1094.74 103.144C1092.47 103.479 1090.57 103.334 1089.02 102.707C1087.46 102.057 1086.32 101.05 1085.59 99.6853C1085.47 99.4501 1085.44 99.2242 1085.5 99.0077C1085.59 98.7786 1085.76 98.6013 1085.99 98.4757L1093.22 94.613C1093.72 94.3493 1094.2 94.2886 1094.67 94.4311C1095.27 94.5939 1095.85 94.614 1096.42 94.4914C1096.98 94.3452 1097.71 94.0334 1098.6 93.5561C1100.83 92.3628 1101.77 91.425 1101.41 90.7429C1101.25 90.4606 1100.98 90.307 1100.57 90.2821C1100.17 90.2212 1099.56 90.3211 1098.73 90.5819C1097.92 90.8067 1096.75 91.2198 1095.22 91.8214C1091.8 93.166 1088.9 93.6851 1086.53 93.3789C1084.15 93.0492 1082.36 91.7552 1081.15 89.497C1080.3 87.8975 1080.03 86.2286 1080.34 84.4904C1080.65 82.7522 1081.5 81.071 1082.9 79.4467C1084.33 77.8099 1086.21 76.3634 1088.57 75.1073C1091.01 73.8009 1093.36 73.0459 1095.61 72.8424C1097.85 72.6153 1099.75 72.8088 1101.32 73.4229C1102.88 74.037 1103.96 74.8851 1104.53 75.9671C1104.66 76.2023 1104.68 76.4345 1104.59 76.6635C1104.52 76.8801 1104.36 77.0574 1104.1 77.1956L1096.52 81.2466C1096.12 81.4602 1095.68 81.5137 1095.2 81.4073C1094.81 81.3103 1094.41 81.2854 1093.98 81.3327C1093.55 81.3799 1092.97 81.5983 1092.24 81.9877C1090.66 82.8293 1090.05 83.5794 1090.4 84.2381C1090.59 84.5909 1091.05 84.7099 1091.77 84.595C1092.49 84.4566 1093.82 84.0033 1095.76 83.2352Z" fill="#FF7BAC"/>
<path d="M783 702.5C783 762.975 719.872 812 642 812C564.128 812 501 762.975 501 702.5C501 642.025 564.128 593 642 593C719.872 593 783 642.025 783 702.5Z" fill="#48110C"/>
<path d="M942 624.5C942 684.975 878.872 734 801 734C723.128 734 660 684.975 660 624.5C660 564.025 723.128 515 801 515C878.872 515 942 564.025 942 624.5Z" fill="#48110C"/>
<path d="M1115 548.5C1115 608.975 1051.87 658 974 658C896.128 658 833 608.975 833 548.5C833 488.025 896.128 439 974 439C1051.87 439 1115 488.025 1115 548.5Z" fill="#48110C"/>
<path d="M611.632 708.905C611.891 708.766 612.165 708.741 612.454 708.829C612.742 708.917 612.956 709.09 613.094 709.349L615.958 714.712C616.096 714.971 616.121 715.244 616.034 715.533C615.946 715.822 615.773 716.035 615.514 716.173L601.647 723.578L602.853 725.836L614.426 719.656C614.685 719.518 614.959 719.493 615.247 719.58C615.536 719.668 615.749 719.841 615.888 720.1L618.733 725.428C618.871 725.687 618.896 725.96 618.809 726.249C618.721 726.538 618.548 726.751 618.289 726.889L606.716 733.07L610.446 740.056C610.585 740.315 610.61 740.588 610.522 740.877C610.434 741.166 610.261 741.379 610.002 741.517L602.381 745.587C602.122 745.725 601.849 745.751 601.56 745.663C601.271 745.575 601.058 745.402 600.92 745.143L588.748 722.35C588.609 722.091 588.584 721.817 588.672 721.528C588.76 721.24 588.933 721.026 589.192 720.888L611.632 708.905ZM641.386 723.216C641.507 724.179 641.192 724.862 640.439 725.264L633.77 728.825C633.559 728.938 633.333 728.968 633.093 728.915C632.864 728.826 632.693 728.675 632.579 728.463L632.502 728.233L628.154 701.579C628.084 701.223 628.116 700.858 628.249 700.484C628.383 700.111 628.673 699.805 629.12 699.566L638.929 694.328C639.376 694.09 639.791 694.019 640.176 694.116C640.56 694.213 640.881 694.389 641.138 694.645L660.87 713.084L661.019 713.277C661.132 713.488 661.15 713.72 661.073 713.973C661.007 714.19 660.869 714.354 660.657 714.467L653.988 718.029C653.235 718.431 652.493 718.313 651.76 717.677L649.559 715.678L640.949 720.275L641.386 723.216ZM637.661 703.757L639.075 712.434L644.085 709.758L637.661 703.757ZM674.857 686.66C677.595 685.561 679.91 684.914 681.802 684.72C683.717 684.514 685.303 684.739 686.562 685.398C687.82 686.056 688.864 687.161 689.693 688.714C690.597 690.407 690.836 692.184 690.409 694.045C689.992 695.87 689.002 697.638 687.437 699.35C685.86 701.039 683.837 702.543 681.367 703.862C678.615 705.331 676.104 706.234 673.834 706.569C671.565 706.904 669.658 706.759 668.114 706.132C666.558 705.482 665.415 704.475 664.686 703.11C664.561 702.875 664.531 702.649 664.597 702.433C664.686 702.204 664.848 702.026 665.083 701.901L672.317 698.038C672.811 697.774 673.292 697.714 673.761 697.856C674.362 698.019 674.947 698.039 675.517 697.916C676.073 697.77 676.799 697.458 677.693 696.981C679.927 695.788 680.863 694.85 680.498 694.168C680.348 693.886 680.069 693.732 679.663 693.707C679.267 693.646 678.656 693.746 677.828 694.007C677.01 694.232 675.84 694.645 674.318 695.246C670.894 696.591 667.997 697.11 665.627 696.804C663.244 696.474 661.449 695.18 660.243 692.922C659.389 691.322 659.118 689.654 659.429 687.915C659.74 686.177 660.596 684.496 661.996 682.872C663.419 681.235 665.307 679.788 667.659 678.532C670.106 677.226 672.454 676.471 674.703 676.267C676.94 676.04 678.842 676.234 680.409 676.848C681.977 677.462 683.049 678.31 683.627 679.392C683.753 679.627 683.771 679.859 683.681 680.089C683.616 680.305 683.453 680.482 683.195 680.621L675.609 684.672C675.209 684.885 674.769 684.939 674.289 684.832C673.904 684.735 673.498 684.71 673.07 684.758C672.642 684.805 672.063 685.023 671.334 685.413C669.758 686.254 669.145 687.004 669.497 687.663C669.686 688.016 670.142 688.135 670.867 688.02C671.579 687.882 672.909 687.428 674.857 686.66ZM714.092 654.191C714.35 654.052 714.624 654.027 714.913 654.115C715.202 654.202 715.415 654.376 715.553 654.634L727.725 677.428C727.863 677.687 727.889 677.961 727.801 678.249C727.713 678.538 727.54 678.751 727.281 678.889L720.013 682.771C719.754 682.909 719.48 682.934 719.191 682.847C718.903 682.759 718.689 682.586 718.551 682.327L714.538 674.811L707.481 678.58L711.494 686.095C711.633 686.354 711.658 686.628 711.57 686.917C711.482 687.205 711.309 687.419 711.05 687.557L703.782 691.438C703.523 691.576 703.256 691.613 702.98 691.549C702.691 691.462 702.471 691.277 702.32 690.994L690.148 668.201C690.01 667.942 689.985 667.668 690.073 667.38C690.16 667.091 690.334 666.878 690.592 666.739L697.861 662.858C698.12 662.72 698.393 662.694 698.682 662.782C698.971 662.87 699.184 663.043 699.322 663.302L703.185 670.535L710.242 666.767L706.379 659.533C706.241 659.275 706.216 659.001 706.303 658.712C706.391 658.424 706.564 658.21 706.823 658.072L714.092 654.191ZM750.679 657.099L757.066 653.688C757.325 653.55 757.598 653.525 757.887 653.613C758.176 653.7 758.389 653.873 758.527 654.132L761.372 659.46C761.511 659.719 761.536 659.993 761.448 660.281C761.36 660.57 761.187 660.783 760.929 660.921L738.558 672.867C738.3 673.006 738.026 673.031 737.737 672.943C737.449 672.855 737.235 672.682 737.097 672.423L734.252 667.096C734.114 666.837 734.088 666.563 734.176 666.274C734.264 665.986 734.437 665.772 734.696 665.634L741.153 662.186L735.689 651.954L729.231 655.402C728.973 655.54 728.699 655.565 728.41 655.477C728.122 655.39 727.908 655.216 727.77 654.958L724.925 649.63C724.787 649.371 724.762 649.097 724.849 648.809C724.937 648.52 725.11 648.307 725.369 648.168L747.739 636.223C747.998 636.084 748.272 636.059 748.56 636.147C748.849 636.235 749.062 636.408 749.2 636.666L752.046 641.994C752.184 642.253 752.209 642.527 752.121 642.816C752.034 643.104 751.86 643.318 751.602 643.456L745.215 646.866L750.679 657.099ZM791.636 631.419C793.558 635.018 793.777 638.316 792.295 641.315C790.836 644.301 788.119 646.855 784.144 648.978C780.168 651.101 776.523 651.944 773.206 651.508C769.913 651.06 767.294 649.013 765.347 645.367L763.123 641.203C761.842 638.804 761.345 636.515 761.633 634.336C761.931 632.12 762.867 630.109 764.441 628.301C766.015 626.493 768.061 624.917 770.577 623.573C773.094 622.229 775.53 621.412 777.884 621.122C780.262 620.82 782.448 621.149 784.443 622.109C786.437 623.07 788.068 624.738 789.337 627.114L791.636 631.419ZM775.269 641.02C775.784 641.985 776.497 642.556 777.409 642.734C778.344 642.9 779.364 642.688 780.47 642.097C781.575 641.507 782.307 640.784 782.666 639.927C783.036 639.034 782.963 638.106 782.448 637.141L779.471 631.566C778.956 630.602 778.231 630.037 777.296 629.871C776.372 629.669 775.357 629.863 774.252 630.454C773.146 631.044 772.402 631.774 772.02 632.643C771.661 633.5 771.739 634.41 772.254 635.375L775.269 641.02ZM816.022 599.759C816.281 599.621 816.554 599.596 816.843 599.683C817.132 599.771 817.345 599.944 817.483 600.203L829.655 622.997C829.793 623.255 829.819 623.529 829.731 623.818C829.643 624.106 829.47 624.32 829.211 624.458L823.53 627.492C822.966 627.793 822.364 627.797 821.723 627.504L808.793 621.803L813.918 631.4C814.057 631.659 814.082 631.933 813.994 632.221C813.906 632.51 813.733 632.723 813.474 632.862L806.912 636.366C806.653 636.504 806.379 636.53 806.09 636.442C805.802 636.354 805.588 636.181 805.45 635.922L793.278 613.129C793.14 612.87 793.115 612.596 793.202 612.307C793.29 612.019 793.463 611.805 793.722 611.667L799.438 608.615C800.003 608.313 800.587 608.304 801.191 608.586L814.555 615.099L809.015 604.725C808.877 604.466 808.852 604.193 808.939 603.904C809.027 603.615 809.2 603.402 809.459 603.264L816.022 599.759ZM900.015 585.243C900.112 585.312 900.192 585.405 900.255 585.522C900.368 585.734 900.386 585.966 900.309 586.219C900.244 586.435 900.105 586.6 899.893 586.713L891.884 590.99C891.554 591.166 891.205 591.247 890.834 591.233C890.488 591.207 890.187 591.096 889.931 590.9L883.095 585.571L880.131 587.154L883.824 594.07C883.962 594.329 883.988 594.602 883.9 594.891C883.812 595.18 883.639 595.393 883.38 595.531L875.759 599.601C875.5 599.739 875.226 599.765 874.938 599.677C874.649 599.589 874.436 599.416 874.297 599.157L862.125 576.364C861.987 576.105 861.962 575.831 862.05 575.542C862.137 575.254 862.311 575.04 862.569 574.902L876.295 567.573C878.412 566.442 880.441 565.797 882.381 565.638C884.345 565.466 886.096 565.8 887.633 566.642C889.171 567.484 890.405 568.775 891.334 570.515C893.042 573.714 893.045 576.691 891.341 579.445L900.015 585.243ZM881.056 578.271C881.573 577.995 881.885 577.617 881.992 577.137C882.086 576.633 881.994 576.123 881.718 575.605C881.442 575.088 881.062 574.716 880.579 574.49C880.106 574.229 879.6 574.242 879.059 574.531L874.648 576.886L876.645 580.627L881.056 578.271ZM955.203 557.631C951.251 559.741 947.653 560.559 944.407 560.086C941.185 559.6 938.6 557.533 936.653 553.887L929.455 540.409C929.317 540.15 929.292 539.876 929.38 539.588C929.467 539.299 929.641 539.086 929.899 538.947L937.274 535.009C937.533 534.871 937.806 534.846 938.095 534.934C938.384 535.021 938.597 535.195 938.735 535.453L946.234 549.496C946.749 550.461 947.463 551.032 948.374 551.211C949.309 551.376 950.329 551.164 951.435 550.574C952.54 549.983 953.273 549.26 953.631 548.403C954.014 547.534 953.947 546.617 953.432 545.653L945.933 531.61C945.795 531.351 945.77 531.077 945.857 530.788C945.945 530.5 946.118 530.286 946.377 530.148L953.752 526.21C954.01 526.072 954.284 526.047 954.573 526.134C954.861 526.222 955.075 526.395 955.213 526.654L962.411 540.133C964.358 543.779 964.625 547.082 963.213 550.043C961.825 552.991 959.155 555.52 955.203 557.631ZM982.764 522.235C985.502 521.136 987.817 520.489 989.709 520.295C991.624 520.089 993.211 520.314 994.469 520.973C995.727 521.631 996.771 522.736 997.6 524.289C998.505 525.982 998.743 527.759 998.316 529.62C997.9 531.445 996.909 533.213 995.345 534.925C993.768 536.614 991.744 538.118 989.274 539.437C986.522 540.906 984.011 541.809 981.741 542.144C979.472 542.479 977.565 542.334 976.021 541.707C974.465 541.057 973.322 540.05 972.594 538.685C972.468 538.45 972.438 538.224 972.504 538.008C972.593 537.779 972.755 537.601 972.991 537.476L980.224 533.613C980.718 533.349 981.199 533.289 981.669 533.431C982.269 533.594 982.855 533.614 983.424 533.491C983.981 533.345 984.706 533.033 985.6 532.556C987.835 531.363 988.77 530.425 988.405 529.743C988.255 529.461 987.976 529.307 987.57 529.282C987.175 529.221 986.563 529.321 985.735 529.582C984.918 529.807 983.748 530.22 982.225 530.821C978.801 532.166 975.904 532.685 973.534 532.379C971.151 532.049 969.357 530.755 968.151 528.497C967.297 526.897 967.025 525.229 967.336 523.49C967.648 521.752 968.503 520.071 969.903 518.447C971.327 516.81 973.214 515.363 975.567 514.107C978.013 512.801 980.361 512.046 982.61 511.842C984.847 511.615 986.749 511.809 988.316 512.423C989.884 513.037 990.956 513.885 991.534 514.967C991.66 515.202 991.678 515.434 991.589 515.664C991.523 515.88 991.361 516.057 991.102 516.196L983.516 520.247C983.116 520.46 982.676 520.514 982.196 520.407C981.811 520.31 981.405 520.285 980.977 520.333C980.549 520.38 979.97 520.598 979.241 520.988C977.665 521.829 977.053 522.579 977.404 523.238C977.593 523.591 978.049 523.71 978.774 523.595C979.486 523.457 980.816 523.003 982.764 522.235Z" fill="#FF7BAC"/>
<path d="M1431 376.5C1431 436.975 1367.87 486 1290 486C1212.13 486 1149 436.975 1149 376.5C1149 316.025 1212.13 267 1290 267C1367.87 267 1431 316.025 1431 376.5Z" fill="#48110C"/>
<path d="M1590 298.5C1590 358.975 1526.87 408 1449 408C1371.13 408 1308 358.975 1308 298.5C1308 238.025 1371.13 189 1449 189C1526.87 189 1590 238.025 1590 298.5Z" fill="#48110C"/>
<path d="M1763 222.5C1763 282.975 1699.87 332 1622 332C1544.13 332 1481 282.975 1481 222.5C1481 162.025 1544.13 113 1622 113C1699.87 113 1763 162.025 1763 222.5Z" fill="#48110C"/>
<path d="M1259.63 382.905C1259.89 382.766 1260.16 382.741 1260.45 382.829C1260.74 382.917 1260.96 383.09 1261.09 383.349L1263.96 388.712C1264.1 388.971 1264.12 389.244 1264.03 389.533C1263.95 389.822 1263.77 390.035 1263.51 390.173L1249.65 397.578L1250.85 399.836L1262.43 393.656C1262.69 393.518 1262.96 393.493 1263.25 393.58C1263.54 393.668 1263.75 393.841 1263.89 394.1L1266.73 399.428C1266.87 399.687 1266.9 399.96 1266.81 400.249C1266.72 400.538 1266.55 400.751 1266.29 400.889L1254.72 407.07L1258.45 414.056C1258.58 414.315 1258.61 414.588 1258.52 414.877C1258.43 415.166 1258.26 415.379 1258 415.517L1250.38 419.587C1250.12 419.725 1249.85 419.751 1249.56 419.663C1249.27 419.575 1249.06 419.402 1248.92 419.143L1236.75 396.35C1236.61 396.091 1236.58 395.817 1236.67 395.528C1236.76 395.24 1236.93 395.026 1237.19 394.888L1259.63 382.905ZM1289.39 397.216C1289.51 398.179 1289.19 398.862 1288.44 399.264L1281.77 402.825C1281.56 402.938 1281.33 402.968 1281.09 402.915C1280.86 402.826 1280.69 402.675 1280.58 402.463L1280.5 402.233L1276.15 375.579C1276.08 375.223 1276.12 374.858 1276.25 374.484C1276.38 374.111 1276.67 373.805 1277.12 373.566L1286.93 368.328C1287.38 368.09 1287.79 368.019 1288.18 368.116C1288.56 368.213 1288.88 368.389 1289.14 368.645L1308.87 387.084L1309.02 387.277C1309.13 387.488 1309.15 387.72 1309.07 387.973C1309.01 388.19 1308.87 388.354 1308.66 388.467L1301.99 392.029C1301.24 392.431 1300.49 392.313 1299.76 391.677L1297.56 389.678L1288.95 394.275L1289.39 397.216ZM1285.66 377.757L1287.07 386.434L1292.08 383.758L1285.66 377.757ZM1322.86 360.66C1325.59 359.561 1327.91 358.914 1329.8 358.72C1331.72 358.514 1333.3 358.739 1334.56 359.398C1335.82 360.056 1336.86 361.161 1337.69 362.714C1338.6 364.407 1338.84 366.184 1338.41 368.045C1337.99 369.87 1337 371.638 1335.44 373.35C1333.86 375.039 1331.84 376.543 1329.37 377.862C1326.61 379.331 1324.1 380.234 1321.83 380.569C1319.56 380.904 1317.66 380.759 1316.11 380.132C1314.56 379.482 1313.42 378.475 1312.69 377.11C1312.56 376.875 1312.53 376.649 1312.6 376.433C1312.69 376.204 1312.85 376.026 1313.08 375.901L1320.32 372.038C1320.81 371.774 1321.29 371.714 1321.76 371.856C1322.36 372.019 1322.95 372.039 1323.52 371.916C1324.07 371.77 1324.8 371.458 1325.69 370.981C1327.93 369.788 1328.86 368.85 1328.5 368.168C1328.35 367.886 1328.07 367.732 1327.66 367.707C1327.27 367.646 1326.66 367.746 1325.83 368.007C1325.01 368.232 1323.84 368.645 1322.32 369.246C1318.89 370.591 1316 371.11 1313.63 370.804C1311.24 370.474 1309.45 369.18 1308.24 366.922C1307.39 365.322 1307.12 363.654 1307.43 361.915C1307.74 360.177 1308.6 358.496 1310 356.872C1311.42 355.235 1313.31 353.788 1315.66 352.532C1318.11 351.226 1320.45 350.471 1322.7 350.267C1324.94 350.04 1326.84 350.234 1328.41 350.848C1329.98 351.462 1331.05 352.31 1331.63 353.392C1331.75 353.627 1331.77 353.859 1331.68 354.089C1331.62 354.305 1331.45 354.482 1331.19 354.621L1323.61 358.672C1323.21 358.885 1322.77 358.939 1322.29 358.832C1321.9 358.735 1321.5 358.71 1321.07 358.758C1320.64 358.805 1320.06 359.023 1319.33 359.413C1317.76 360.254 1317.15 361.004 1317.5 361.663C1317.69 362.016 1318.14 362.135 1318.87 362.02C1319.58 361.882 1320.91 361.428 1322.86 360.66ZM1362.09 328.191C1362.35 328.052 1362.62 328.027 1362.91 328.115C1363.2 328.202 1363.41 328.376 1363.55 328.634L1375.73 351.428C1375.86 351.687 1375.89 351.961 1375.8 352.249C1375.71 352.538 1375.54 352.751 1375.28 352.889L1368.01 356.771C1367.75 356.909 1367.48 356.934 1367.19 356.847C1366.9 356.759 1366.69 356.586 1366.55 356.327L1362.54 348.811L1355.48 352.58L1359.49 360.095C1359.63 360.354 1359.66 360.628 1359.57 360.917C1359.48 361.205 1359.31 361.419 1359.05 361.557L1351.78 365.438C1351.52 365.576 1351.26 365.613 1350.98 365.549C1350.69 365.462 1350.47 365.277 1350.32 364.994L1338.15 342.201C1338.01 341.942 1337.99 341.668 1338.07 341.38C1338.16 341.091 1338.33 340.878 1338.59 340.739L1345.86 336.858C1346.12 336.72 1346.39 336.694 1346.68 336.782C1346.97 336.87 1347.18 337.043 1347.32 337.302L1351.18 344.535L1358.24 340.767L1354.38 333.533C1354.24 333.275 1354.22 333.001 1354.3 332.712C1354.39 332.424 1354.56 332.21 1354.82 332.072L1362.09 328.191ZM1398.68 331.099L1405.07 327.688C1405.32 327.55 1405.6 327.525 1405.89 327.613C1406.18 327.7 1406.39 327.873 1406.53 328.132L1409.37 333.46C1409.51 333.719 1409.54 333.993 1409.45 334.281C1409.36 334.57 1409.19 334.783 1408.93 334.921L1386.56 346.867C1386.3 347.006 1386.03 347.031 1385.74 346.943C1385.45 346.855 1385.24 346.682 1385.1 346.423L1382.25 341.096C1382.11 340.837 1382.09 340.563 1382.18 340.274C1382.26 339.986 1382.44 339.772 1382.7 339.634L1389.15 336.186L1383.69 325.954L1377.23 329.402C1376.97 329.54 1376.7 329.565 1376.41 329.477C1376.12 329.39 1375.91 329.216 1375.77 328.958L1372.92 323.63C1372.79 323.371 1372.76 323.097 1372.85 322.809C1372.94 322.52 1373.11 322.307 1373.37 322.168L1395.74 310.223C1396 310.084 1396.27 310.059 1396.56 310.147C1396.85 310.235 1397.06 310.408 1397.2 310.666L1400.05 315.994C1400.18 316.253 1400.21 316.527 1400.12 316.816C1400.03 317.104 1399.86 317.318 1399.6 317.456L1393.22 320.866L1398.68 331.099ZM1439.64 305.419C1441.56 309.018 1441.78 312.316 1440.3 315.315C1438.84 318.301 1436.12 320.855 1432.14 322.978C1428.17 325.101 1424.52 325.944 1421.21 325.508C1417.91 325.06 1415.29 323.013 1413.35 319.367L1411.12 315.203C1409.84 312.804 1409.35 310.515 1409.63 308.336C1409.93 306.12 1410.87 304.109 1412.44 302.301C1414.02 300.493 1416.06 298.917 1418.58 297.573C1421.09 296.229 1423.53 295.412 1425.88 295.122C1428.26 294.82 1430.45 295.149 1432.44 296.109C1434.44 297.07 1436.07 298.738 1437.34 301.114L1439.64 305.419ZM1423.27 315.02C1423.78 315.985 1424.5 316.556 1425.41 316.734C1426.34 316.9 1427.36 316.688 1428.47 316.097C1429.58 315.507 1430.31 314.784 1430.67 313.927C1431.04 313.034 1430.96 312.106 1430.45 311.141L1427.47 305.566C1426.96 304.602 1426.23 304.037 1425.3 303.871C1424.37 303.669 1423.36 303.863 1422.25 304.454C1421.15 305.044 1420.4 305.774 1420.02 306.643C1419.66 307.5 1419.74 308.41 1420.25 309.375L1423.27 315.02ZM1464.02 273.759C1464.28 273.621 1464.55 273.596 1464.84 273.683C1465.13 273.771 1465.34 273.944 1465.48 274.203L1477.66 296.997C1477.79 297.255 1477.82 297.529 1477.73 297.818C1477.64 298.106 1477.47 298.32 1477.21 298.458L1471.53 301.492C1470.97 301.793 1470.36 301.797 1469.72 301.504L1456.79 295.803L1461.92 305.4C1462.06 305.659 1462.08 305.933 1461.99 306.221C1461.91 306.51 1461.73 306.723 1461.47 306.862L1454.91 310.366C1454.65 310.504 1454.38 310.53 1454.09 310.442C1453.8 310.354 1453.59 310.181 1453.45 309.922L1441.28 287.129C1441.14 286.87 1441.11 286.596 1441.2 286.307C1441.29 286.019 1441.46 285.805 1441.72 285.667L1447.44 282.615C1448 282.313 1448.59 282.304 1449.19 282.586L1462.55 289.099L1457.01 278.725C1456.88 278.466 1456.85 278.193 1456.94 277.904C1457.03 277.615 1457.2 277.402 1457.46 277.264L1464.02 273.759ZM1548.01 259.243C1548.11 259.312 1548.19 259.405 1548.25 259.522C1548.37 259.734 1548.39 259.966 1548.31 260.219C1548.24 260.435 1548.1 260.6 1547.89 260.713L1539.88 264.99C1539.55 265.166 1539.2 265.247 1538.83 265.233C1538.49 265.207 1538.19 265.096 1537.93 264.9L1531.09 259.571L1528.13 261.154L1531.82 268.07C1531.96 268.329 1531.99 268.602 1531.9 268.891C1531.81 269.18 1531.64 269.393 1531.38 269.531L1523.76 273.601C1523.5 273.739 1523.23 273.765 1522.94 273.677C1522.65 273.589 1522.44 273.416 1522.3 273.157L1510.13 250.364C1509.99 250.105 1509.96 249.831 1510.05 249.542C1510.14 249.254 1510.31 249.04 1510.57 248.902L1524.29 241.573C1526.41 240.442 1528.44 239.797 1530.38 239.638C1532.34 239.466 1534.1 239.8 1535.63 240.642C1537.17 241.484 1538.4 242.775 1539.33 244.515C1541.04 247.714 1541.04 250.691 1539.34 253.445L1548.01 259.243ZM1529.06 252.271C1529.57 251.995 1529.89 251.617 1529.99 251.137C1530.09 250.633 1529.99 250.123 1529.72 249.605C1529.44 249.088 1529.06 248.716 1528.58 248.49C1528.11 248.229 1527.6 248.242 1527.06 248.531L1522.65 250.886L1524.65 254.627L1529.06 252.271ZM1603.2 231.631C1599.25 233.741 1595.65 234.559 1592.41 234.086C1589.18 233.6 1586.6 231.533 1584.65 227.887L1577.46 214.409C1577.32 214.15 1577.29 213.876 1577.38 213.588C1577.47 213.299 1577.64 213.086 1577.9 212.947L1585.27 209.009C1585.53 208.871 1585.81 208.846 1586.09 208.934C1586.38 209.021 1586.6 209.195 1586.74 209.453L1594.23 223.496C1594.75 224.461 1595.46 225.032 1596.37 225.211C1597.31 225.376 1598.33 225.164 1599.43 224.574C1600.54 223.983 1601.27 223.26 1601.63 222.403C1602.01 221.534 1601.95 220.617 1601.43 219.653L1593.93 205.61C1593.8 205.351 1593.77 205.077 1593.86 204.788C1593.95 204.5 1594.12 204.286 1594.38 204.148L1601.75 200.21C1602.01 200.072 1602.28 200.047 1602.57 200.134C1602.86 200.222 1603.07 200.395 1603.21 200.654L1610.41 214.133C1612.36 217.779 1612.63 221.082 1611.21 224.043C1609.83 226.991 1607.16 229.52 1603.2 231.631ZM1630.76 196.235C1633.5 195.136 1635.82 194.489 1637.71 194.295C1639.62 194.089 1641.21 194.314 1642.47 194.973C1643.73 195.631 1644.77 196.736 1645.6 198.289C1646.5 199.982 1646.74 201.759 1646.32 203.62C1645.9 205.445 1644.91 207.213 1643.34 208.925C1641.77 210.614 1639.74 212.118 1637.27 213.437C1634.52 214.906 1632.01 215.809 1629.74 216.144C1627.47 216.479 1625.57 216.334 1624.02 215.707C1622.46 215.057 1621.32 214.05 1620.59 212.685C1620.47 212.45 1620.44 212.224 1620.5 212.008C1620.59 211.779 1620.76 211.601 1620.99 211.476L1628.22 207.613C1628.72 207.349 1629.2 207.289 1629.67 207.431C1630.27 207.594 1630.85 207.614 1631.42 207.491C1631.98 207.345 1632.71 207.033 1633.6 206.556C1635.83 205.363 1636.77 204.425 1636.41 203.743C1636.25 203.461 1635.98 203.307 1635.57 203.282C1635.17 203.221 1634.56 203.321 1633.73 203.582C1632.92 203.807 1631.75 204.22 1630.22 204.821C1626.8 206.166 1623.9 206.685 1621.53 206.379C1619.15 206.049 1617.36 204.755 1616.15 202.497C1615.3 200.897 1615.03 199.229 1615.34 197.49C1615.65 195.752 1616.5 194.071 1617.9 192.447C1619.33 190.81 1621.21 189.363 1623.57 188.107C1626.01 186.801 1628.36 186.046 1630.61 185.842C1632.85 185.615 1634.75 185.809 1636.32 186.423C1637.88 187.037 1638.96 187.885 1639.53 188.967C1639.66 189.202 1639.68 189.434 1639.59 189.664C1639.52 189.88 1639.36 190.057 1639.1 190.196L1631.52 194.247C1631.12 194.46 1630.68 194.514 1630.2 194.407C1629.81 194.31 1629.41 194.285 1628.98 194.333C1628.55 194.38 1627.97 194.598 1627.24 194.988C1625.66 195.829 1625.05 196.579 1625.4 197.238C1625.59 197.591 1626.05 197.71 1626.77 197.595C1627.49 197.457 1628.82 197.003 1630.76 196.235Z" fill="#FF7BAC"/>
</svg>
